<svg width="313" height="221" viewBox="0 0 313 221" fill="none" xmlns="http://www.w3.org/2000/svg">
<rect x="36" y="77" width="244" height="117" fill="#C4C4C4" stroke="black" stroke-width="2"/>
<path d="M24.7094 77L156.5 1.15378L288.291 77H24.7094Z" fill="#515151" fill-opacity="0.78" stroke="black" stroke-width="2"/>
<rect x="233" y="77" width="46" height="17" fill="#938F8F" stroke="black" stroke-width="2"/>
<rect x="111" y="137" width="46" height="17" fill="#938F8F" stroke="black" stroke-width="2"/>
<rect x="160" y="137" width="46" height="17" fill="#938F8F" stroke="black" stroke-width="2"/>
<rect x="37" y="117" width="46" height="17" fill="#938F8F" stroke="black" stroke-width="2"/>
<rect x="62" y="137" width="46" height="17" fill="#938F8F" stroke="black" stroke-width="2"/>
<rect x="184" y="157" width="46" height="17" fill="#938F8F" stroke="black" stroke-width="2"/>
<rect x="86" y="157" width="46" height="17" fill="#938F8F" stroke="black" stroke-width="2"/>
<rect x="37" y="157" width="46" height="17" fill="#938F8F" stroke="black" stroke-width="2"/>
<rect x="111" y="177" width="46" height="17" fill="#938F8F" stroke="black" stroke-width="2"/>
<rect x="233" y="157" width="46" height="17" fill="#938F8F" stroke="black" stroke-width="2"/>
<rect x="208" y="97" width="46" height="17" fill="#938F8F" stroke="black" stroke-width="2"/>
<rect x="62" y="97" width="46" height="17" fill="#938F8F" stroke="black" stroke-width="2"/>
<rect x="209" y="177" width="46" height="17" fill="#938F8F" stroke="black" stroke-width="2"/>
<rect x="38" y="77" width="46" height="17" fill="#938F8F" stroke="black" stroke-width="2"/>
<rect x="160" y="177" width="46" height="17" fill="#938F8F" stroke="black" stroke-width="2"/>
<rect x="234" y="117" width="46" height="17" fill="#938F8F" stroke="black" stroke-width="2"/>
<rect x="135" y="157" width="46" height="17" fill="#938F8F" stroke="black" stroke-width="2"/>
<rect x="209" y="137" width="46" height="17" fill="#938F8F" stroke="black" stroke-width="2"/>
<rect x="62" y="177" width="46" height="17" fill="#938F8F" stroke="black" stroke-width="2"/>
<rect x="37" y="137" width="22" height="17" fill="#938F8F" stroke="black" stroke-width="2"/>
<rect x="258" y="137" width="22" height="17" fill="#938F8F" stroke="black" stroke-width="2"/>
<rect x="258" y="177" width="22" height="17" fill="#938F8F" stroke="black" stroke-width="2"/>
<rect x="37" y="177" width="22" height="17" fill="#938F8F" stroke="black" stroke-width="2"/>
<path d="M142.783 113.751L141.155 114.912L144.741 113.343L142.783 113.751ZM138.366 92.5843L137.601 90.7365L136.07 91.3707L136.408 92.9928L138.366 92.5843ZM144.031 90.2377L146.001 89.8907L145.568 87.4362L143.266 88.39L144.031 90.2377ZM149.338 120.359L150.103 122.207L151.586 121.593L151.308 120.012L149.338 120.359ZM143.616 122.729L142.002 123.91L142.929 125.178L144.381 124.577L143.616 122.729ZM131.482 106.135L133.096 104.955L129.505 106.442L131.482 106.135ZM134.635 126.449L135.401 128.297L136.853 127.695L136.612 126.142L134.635 126.449ZM128.913 128.819L127.275 129.967L128.196 131.281L129.679 130.667L128.913 128.819ZM111.367 103.768L110.602 101.92L108.299 102.874L109.729 104.915L111.367 103.768ZM117.032 101.421L118.704 100.323L117.796 98.9401L116.267 99.5734L117.032 101.421ZM128.879 119.466L127.207 120.564L130.852 119.138L128.879 119.466ZM125.312 97.9916L124.546 96.1438L123.078 96.7519L123.339 98.3193L125.312 97.9916ZM130.124 95.9982L131.753 94.837L130.829 93.5415L129.359 94.1504L130.124 95.9982ZM144.741 113.343L140.324 92.1757L136.408 92.9928L140.825 114.16L144.741 113.343ZM139.131 94.432L144.797 92.0855L143.266 88.39L137.601 90.7365L139.131 94.432ZM142.061 90.5848L147.368 120.706L151.308 120.012L146.001 89.8907L142.061 90.5848ZM148.573 118.511L142.851 120.881L144.381 124.577L150.103 122.207L148.573 118.511ZM145.231 121.549L133.096 104.955L129.867 107.316L142.002 123.91L145.231 121.549ZM129.505 106.442L132.659 126.756L136.612 126.142L133.458 105.828L129.505 106.442ZM133.87 124.601L128.148 126.971L129.679 130.667L135.401 128.297L133.87 124.601ZM130.552 127.672L113.005 102.62L109.729 104.915L127.275 129.967L130.552 127.672ZM112.132 105.615L117.797 103.269L116.267 99.5734L110.602 101.92L112.132 105.615ZM115.36 102.519L127.207 120.564L130.551 118.368L118.704 100.323L115.36 102.519ZM130.852 119.138L127.285 97.6638L123.339 98.3193L126.906 119.794L130.852 119.138ZM126.077 99.8393L130.89 97.8459L129.359 94.1504L124.546 96.1438L126.077 99.8393ZM128.496 97.1593L141.155 114.912L144.411 112.59L131.753 94.837L128.496 97.1593Z" fill="black"/>
<path d="M176.49 120.193L176.403 122.191L178.401 122.279L178.488 120.281L176.49 120.193ZM170.051 119.912L168.053 119.825L167.966 121.823L169.964 121.91L170.051 119.912ZM170.636 106.519L172.634 106.606L172.721 104.608L170.723 104.521L170.636 106.519ZM158.079 105.97L158.166 103.972L156.168 103.885L156.081 105.883L158.079 105.97ZM157.494 119.364L157.407 121.362L159.405 121.449L159.493 119.451L157.494 119.364ZM151.055 119.083L149.057 118.996L148.97 120.994L150.968 121.081L151.055 119.083ZM152.42 87.8313L152.507 85.8332L150.509 85.746L150.422 87.7441L152.42 87.8313ZM158.859 88.1125L160.857 88.1997L160.944 86.2016L158.946 86.1144L158.859 88.1125ZM158.306 100.776L156.308 100.689L156.221 102.687L158.219 102.774L158.306 100.776ZM170.862 101.324L170.775 103.323L172.773 103.41L172.861 101.412L170.862 101.324ZM171.415 88.6607L171.503 86.6626L169.504 86.5754L169.417 88.5735L171.415 88.6607ZM177.854 88.9418L179.853 89.0291L179.94 87.031L177.942 86.9437L177.854 88.9418ZM176.577 118.195L170.138 117.914L169.964 121.91L176.403 122.191L176.577 118.195ZM172.049 119.999L172.634 106.606L168.638 106.431L168.053 119.825L172.049 119.999ZM170.723 104.521L158.166 103.972L157.992 107.969L170.548 108.517L170.723 104.521ZM156.081 105.883L155.496 119.277L159.493 119.451L160.077 106.058L156.081 105.883ZM157.582 117.366L151.143 117.085L150.968 121.081L157.407 121.362L157.582 117.366ZM153.053 119.17L154.418 87.9186L150.422 87.7441L149.057 118.996L153.053 119.17ZM152.333 89.8294L158.772 90.1106L158.946 86.1144L152.507 85.8332L152.333 89.8294ZM156.861 88.0252L156.308 100.689L160.304 100.863L160.857 88.1997L156.861 88.0252ZM158.219 102.774L170.775 103.323L170.95 99.3263L158.393 98.7781L158.219 102.774ZM172.861 101.412L173.413 88.7479L169.417 88.5735L168.864 101.237L172.861 101.412ZM171.328 90.6588L177.767 90.9399L177.942 86.9437L171.503 86.6626L171.328 90.6588ZM175.856 88.8546L174.492 120.106L178.488 120.281L179.853 89.0291L175.856 88.8546Z" fill="black"/>
<path d="M201.493 120.707L202.701 122.302L203.279 121.864L203.442 121.157L201.493 120.707ZM196.221 122.668L196.454 124.654L196.466 124.653L196.221 122.668ZM183.166 119.044L181.794 120.499L181.8 120.505L181.806 120.51L183.166 119.044ZM179.877 113.233L177.929 113.687L177.932 113.697L179.877 113.233ZM180.001 105.495L178.052 105.045L178.05 105.055L178.048 105.064L180.001 105.495ZM183.656 96.3205L182.076 95.0941L182.072 95.0985L183.656 96.3205ZM189.017 92.4228L189.646 94.3214L189.65 94.3201L189.017 92.4228ZM203.424 96.5698L201.82 97.7639L201.825 97.7703L203.424 96.5698ZM205.225 104.542L204.775 106.49L206.96 106.995L207.212 104.767L205.225 104.542ZM199.39 103.194L197.395 103.058L197.279 104.76L198.941 105.143L199.39 103.194ZM198.456 99.1271L196.849 100.318L196.854 100.324L196.858 100.329L198.456 99.1271ZM186.584 104.784L184.638 104.326L184.636 104.334L186.584 104.784ZM196.001 117.145L197.061 118.841L197.764 118.402L197.95 117.595L196.001 117.145ZM197.159 112.13L199.108 112.579L199.558 110.631L197.609 110.181L197.159 112.13ZM191.704 110.87L189.755 110.42L189.305 112.369L191.254 112.819L191.704 110.87ZM192.724 106.454L193.174 104.505L191.225 104.055L190.775 106.004L192.724 106.454ZM204.173 109.097L206.122 109.547L206.572 107.599L204.623 107.149L204.173 109.097ZM200.286 119.113C199.25 119.897 197.849 120.452 195.975 120.683L196.466 124.653C198.868 124.356 200.981 123.604 202.701 122.302L200.286 119.113ZM195.987 120.682C194.111 120.902 192.078 120.774 189.872 120.265L188.972 124.163C191.562 124.761 194.061 124.936 196.454 124.654L195.987 120.682ZM189.872 120.265C187.644 119.751 185.887 118.839 184.526 117.577L181.806 120.51C183.751 122.313 186.165 123.515 188.972 124.163L189.872 120.265ZM184.538 117.588C183.204 116.331 182.295 114.747 181.823 112.769L177.932 113.697C178.572 116.382 179.855 118.671 181.794 120.499L184.538 117.588ZM181.825 112.779C181.363 110.797 181.379 108.526 181.954 105.927L178.048 105.064C177.372 108.125 177.306 111.013 177.929 113.687L181.825 112.779ZM181.95 105.945L182.406 103.967L178.509 103.067L178.052 105.045L181.95 105.945ZM182.406 103.967C183.028 101.276 183.991 99.1591 185.239 97.5424L182.072 95.0985C180.397 97.269 179.229 99.9495 178.509 103.067L182.406 103.967ZM185.235 97.5469C186.493 95.9266 187.961 94.8798 189.646 94.3214L188.388 90.5243C185.881 91.355 183.774 92.9067 182.076 95.0941L185.235 97.5469ZM189.65 94.3201C191.367 93.7475 193.283 93.6712 195.454 94.1724L196.354 90.2749C193.569 89.632 190.894 89.6885 188.385 90.5256L189.65 94.3201ZM195.454 94.1724C198.605 94.9 200.626 96.1593 201.82 97.7639L205.029 95.3757C203.096 92.7786 200.103 91.1404 196.354 90.2749L195.454 94.1724ZM201.825 97.7703C203.015 99.3556 203.561 101.467 203.238 104.316L207.212 104.767C207.621 101.163 206.968 97.9591 205.024 95.3693L201.825 97.7703ZM205.675 102.593L199.84 101.246L198.941 105.143L204.775 106.49L205.675 102.593ZM201.386 103.331C201.523 101.317 201.182 99.424 200.055 97.9249L196.858 100.329C197.212 100.8 197.493 101.618 197.395 103.058L201.386 103.331ZM200.063 97.9364C198.968 96.4585 197.319 95.5913 195.417 95.1521L194.517 99.0496C195.812 99.3486 196.489 99.8322 196.849 100.318L200.063 97.9364ZM195.417 95.1521C192.81 94.5502 190.393 95.0708 188.438 96.8417L191.124 99.8061C192.008 99.0052 193.048 98.7104 194.517 99.0496L195.417 95.1521ZM188.438 96.8417C186.584 98.5213 185.39 101.134 184.638 104.326L188.531 105.243C189.202 102.393 190.139 100.698 191.124 99.8061L188.438 96.8417ZM184.636 104.334L184.207 106.193L188.104 107.092L188.533 105.234L184.636 104.334ZM184.207 106.193C183.457 109.439 183.421 112.372 184.465 114.759L188.13 113.156C187.577 111.891 187.445 109.947 188.104 107.092L184.207 106.193ZM184.465 114.759C185.559 117.259 187.656 118.786 190.404 119.421L191.303 115.523C189.575 115.124 188.635 114.309 188.13 113.156L184.465 114.759ZM190.404 119.421C192.849 119.985 195.211 119.997 197.061 118.841L194.941 115.449C194.43 115.769 193.361 115.998 191.303 115.523L190.404 119.421ZM197.95 117.595L199.108 112.579L195.21 111.68L194.053 116.695L197.95 117.595ZM197.609 110.181L192.154 108.921L191.254 112.819L196.709 114.078L197.609 110.181ZM193.653 111.32L194.672 106.904L190.775 106.004L189.755 110.42L193.653 111.32ZM192.274 108.403L203.724 111.046L204.623 107.149L193.174 104.505L192.274 108.403ZM202.225 108.648L199.544 120.257L203.442 121.157L206.122 109.547L202.225 108.648Z" fill="black"/>
<rect x="37" y="97" width="22" height="17" fill="#938F8F" stroke="black" stroke-width="2"/>
<rect x="257" y="97" width="22" height="17" fill="#938F8F" stroke="black" stroke-width="2"/>
<line x1="156.5" y1="2" x2="156.5" y2="76" stroke="black" stroke-width="3"/>
<line x1="153.274" y1="2.41823" x2="37.274" y2="78.4182" stroke="black"/>
<line x1="153.311" y1="2.39125" x2="60.3113" y2="76.3913" stroke="black"/>
<line x1="153.361" y1="4.34595" x2="84.361" y2="76.346" stroke="black"/>
<line x1="156.412" y1="2.28374" x2="105.412" y2="76.2837" stroke="black"/>
<line x1="156.462" y1="1.19099" x2="125.462" y2="76.191" stroke="black"/>
<line x1="155.489" y1="4.10198" x2="140.489" y2="76.102" stroke="black"/>
<line x1="157.286" y1="1.59002" x2="263.286" y2="75.59" stroke="black"/>
<line x1="158.331" y1="1.62482" x2="242.331" y2="75.6248" stroke="black"/>
<line x1="157.492" y1="0.908251" x2="171.492" y2="75.9083" stroke="black"/>
<line x1="157.468" y1="1.82305" x2="185.468" y2="75.8231" stroke="black"/>
<line x1="156.383" y1="1.67889" x2="218.383" y2="75.6789" stroke="black"/>
<line x1="157.431" y1="2.74623" x2="200.431" y2="75.7462" stroke="black"/>
<line y1="-2" x2="68.7003" y2="-2" transform="matrix(-0.272774 0.962078 -0.962823 -0.270133 106.562 141.237)" stroke="#343333" stroke-width="4"/>
<line y1="-2" x2="71.4745" y2="-2" transform="matrix(-0.293817 0.955862 -0.956743 -0.290934 137.15 148.548)" stroke="#343333" stroke-width="4"/>
<g filter="url(#filter0_d)">
<line x1="109.456" y1="143.789" x2="139.793" y2="151.077" stroke="#343333" stroke-width="4"/>
</g>
<line y1="-2" x2="31.2042" y2="-2" transform="matrix(0.963935 0.266136 -0.26873 0.963215 101.063 164.018)" stroke="#343333" stroke-width="4"/>
<line y1="-2" x2="30.5002" y2="-2" transform="matrix(0.966038 0.2584 -0.260901 0.965365 95.1172 185.902)" stroke="#343333" stroke-width="4"/>
<defs>
<filter id="filter0_d" x="104.988" y="141.845" width="39.2713" height="19.1765" filterUnits="userSpaceOnUse" color-interpolation-filters="sRGB">
<feFlood flood-opacity="0" result="BackgroundImageFix"/>
<feColorMatrix in="SourceAlpha" type="matrix" values="0 0 0 0 0 0 0 0 0 0 0 0 0 0 0 0 0 0 127 0"/>
<feOffset dy="4"/>
<feGaussianBlur stdDeviation="2"/>
<feColorMatrix type="matrix" values="0 0 0 0 0 0 0 0 0 0 0 0 0 0 0 0 0 0 0.25 0"/>
<feBlend mode="normal" in2="BackgroundImageFix" result="effect1_dropShadow"/>
<feBlend mode="normal" in="SourceGraphic" in2="effect1_dropShadow" result="shape"/>
</filter>
</defs>
</svg>
